<?xml version="1.0" encoding="utf-8"?>
<!-- Generator: Adobe Illustrator 23.0.1, SVG Export Plug-In . SVG Version: 6.00 Build 0)  -->
<svg version="1.1" id="Ebene_1" xmlns="http://www.w3.org/2000/svg" xmlns:xlink="http://www.w3.org/1999/xlink" x="0px" y="0px"
	 viewBox="0 0 283.46 283.46" style="enable-background:new 0 0 283.46 283.46;" xml:space="preserve">
<style type="text/css">
	.st0{fill:#F0E614;}
</style>
<path class="st0" d="M259.31,1.27c-10.84-3.95-22.84,1.63-26.8,12.48l-80.46,220.77c-2.37,6.44-7.93,7.14-10.23,7.14
	c0,0-0.01,0-0.01,0c-2.29,0-7.87-0.7-10.23-7.17L50.94,13.73C46.98,2.89,34.99-2.68,24.14,1.27C13.29,5.23,7.72,17.23,11.68,28.08
	l80.63,220.75c7.67,21.02,27.08,34.62,49.46,34.64c0.02,0,0.03,0,0.05,0c22.35,0,41.77-13.55,49.49-34.59l80.48-220.82
	C275.74,17.22,270.15,5.22,259.31,1.27z"/>
</svg>
